<?xml version="1.0" encoding="UTF-8"?>
<svg xmlns="http://www.w3.org/2000/svg" version="1.1" width="125" height="125" viewBox="0 0 125 125"><rect x="0" y="0" width="125" height="125" fill="#ffffff"/><g transform="scale(1.923)"><g transform="translate(0,0)"><path fill-rule="evenodd" d="M8 0L8 2L10 2L10 3L8 3L8 7L9 7L9 11L8 11L8 9L7 9L7 8L6 8L6 9L7 9L7 10L6 10L6 11L5 11L5 10L3 10L3 11L2 11L2 12L1 12L1 11L0 11L0 15L1 15L1 16L0 16L0 18L1 18L1 19L2 19L2 20L0 20L0 21L2 21L2 20L3 20L3 21L4 21L4 20L5 20L5 21L7 21L7 22L6 22L6 23L4 23L4 24L5 24L5 25L2 25L2 26L1 26L1 25L0 25L0 26L1 26L1 27L0 27L0 29L1 29L1 30L0 30L0 32L2 32L2 29L4 29L4 31L3 31L3 32L4 32L4 33L3 33L3 34L2 34L2 35L9 35L9 36L10 36L10 35L9 35L9 33L10 33L10 34L12 34L12 35L11 35L11 37L10 37L10 38L11 38L11 40L10 40L10 39L9 39L9 40L6 40L6 39L8 39L8 37L7 37L7 36L6 36L6 37L7 37L7 38L6 38L6 39L5 39L5 40L3 40L3 39L4 39L4 38L3 38L3 39L1 39L1 38L2 38L2 37L3 37L3 36L2 36L2 37L1 37L1 36L0 36L0 37L1 37L1 38L0 38L0 39L1 39L1 40L3 40L3 41L1 41L1 43L0 43L0 44L1 44L1 46L0 46L0 49L1 49L1 50L0 50L0 51L2 51L2 52L3 52L3 53L4 53L4 54L2 54L2 53L1 53L1 52L0 52L0 53L1 53L1 54L2 54L2 55L3 55L3 56L1 56L1 55L0 55L0 56L1 56L1 57L3 57L3 56L4 56L4 57L5 57L5 56L4 56L4 54L5 54L5 55L7 55L7 56L6 56L6 57L8 57L8 58L12 58L12 57L17 57L17 58L15 58L15 59L16 59L16 63L14 63L14 64L13 64L13 63L12 63L12 62L15 62L15 60L14 60L14 58L13 58L13 59L12 59L12 61L11 61L11 63L10 63L10 61L8 61L8 62L9 62L9 63L10 63L10 65L12 65L12 64L13 64L13 65L15 65L15 64L16 64L16 65L17 65L17 63L18 63L18 61L19 61L19 63L21 63L21 64L20 64L20 65L21 65L21 64L22 64L22 63L24 63L24 64L23 64L23 65L25 65L25 64L26 64L26 65L27 65L27 63L28 63L28 61L27 61L27 62L26 62L26 61L25 61L25 62L24 62L24 58L22 58L22 56L23 56L23 57L24 57L24 56L25 56L25 57L26 57L26 60L29 60L29 59L30 59L30 61L31 61L31 63L30 63L30 62L29 62L29 65L30 65L30 64L31 64L31 65L34 65L34 64L36 64L36 62L35 62L35 60L36 60L36 61L37 61L37 62L38 62L38 63L37 63L37 65L38 65L38 64L39 64L39 63L40 63L40 65L41 65L41 63L43 63L43 64L44 64L44 65L45 65L45 64L44 64L44 62L42 62L42 61L45 61L45 58L46 58L46 57L47 57L47 59L46 59L46 60L47 60L47 62L46 62L46 65L52 65L52 63L53 63L53 64L54 64L54 65L55 65L55 64L56 64L56 62L53 62L53 61L55 61L55 59L56 59L56 61L62 61L62 60L63 60L63 62L64 62L64 63L63 63L63 64L62 64L62 65L64 65L64 63L65 63L65 60L64 60L64 57L65 57L65 53L63 53L63 52L62 52L62 53L61 53L61 50L62 50L62 49L63 49L63 48L64 48L64 50L63 50L63 51L65 51L65 47L64 47L64 46L63 46L63 47L62 47L62 49L61 49L61 46L62 46L62 45L61 45L61 44L62 44L62 43L60 43L60 44L59 44L59 42L62 42L62 41L63 41L63 40L65 40L65 36L64 36L64 34L63 34L63 33L65 33L65 30L64 30L64 29L63 29L63 28L59 28L59 30L58 30L58 29L57 29L57 28L58 28L58 27L61 27L61 25L62 25L62 24L63 24L63 26L62 26L62 27L65 27L65 25L64 25L64 24L65 24L65 22L64 22L64 21L65 21L65 19L63 19L63 20L64 20L64 21L62 21L62 22L63 22L63 23L62 23L62 24L58 24L58 23L55 23L55 22L56 22L56 21L57 21L57 20L56 20L56 21L55 21L55 22L53 22L53 20L54 20L54 19L58 19L58 21L59 21L59 20L60 20L60 23L61 23L61 20L62 20L62 19L61 19L61 20L60 20L60 19L59 19L59 18L57 18L57 16L58 16L58 17L60 17L60 18L64 18L64 17L65 17L65 16L64 16L64 17L63 17L63 16L58 16L58 14L59 14L59 15L60 15L60 14L61 14L61 12L64 12L64 13L63 13L63 14L62 14L62 15L65 15L65 12L64 12L64 10L63 10L63 11L61 11L61 10L62 10L62 8L59 8L59 10L60 10L60 11L61 11L61 12L58 12L58 11L57 11L57 10L54 10L54 9L55 9L55 8L56 8L56 7L57 7L57 6L56 6L56 7L55 7L55 5L54 5L54 4L56 4L56 5L57 5L57 4L56 4L56 3L57 3L57 1L56 1L56 0L55 0L55 1L56 1L56 3L55 3L55 2L54 2L54 1L52 1L52 0L48 0L48 1L51 1L51 2L46 2L46 1L47 1L47 0L46 0L46 1L45 1L45 0L44 0L44 1L45 1L45 4L42 4L42 8L40 8L40 7L41 7L41 6L40 6L40 5L39 5L39 4L40 4L40 3L41 3L41 2L39 2L39 1L40 1L40 0L39 0L39 1L37 1L37 2L34 2L34 1L33 1L33 0L29 0L29 1L27 1L27 0L24 0L24 1L23 1L23 0L22 0L22 1L23 1L23 2L25 2L25 1L26 1L26 3L27 3L27 4L24 4L24 3L22 3L22 5L23 5L23 6L22 6L22 8L21 8L21 6L20 6L20 10L21 10L21 11L19 11L19 10L17 10L17 9L16 9L16 8L14 8L14 9L12 9L12 10L10 10L10 9L11 9L11 8L12 8L12 7L13 7L13 6L14 6L14 7L15 7L15 6L14 6L14 5L13 5L13 3L14 3L14 4L15 4L15 5L16 5L16 4L15 4L15 3L14 3L14 2L11 2L11 0L10 0L10 1L9 1L9 0ZM12 0L12 1L13 1L13 0ZM14 0L14 1L15 1L15 2L16 2L16 3L17 3L17 5L18 5L18 7L17 7L17 6L16 6L16 7L17 7L17 8L19 8L19 5L20 5L20 4L19 4L19 5L18 5L18 3L21 3L21 1L20 1L20 2L19 2L19 0L17 0L17 1L15 1L15 0ZM35 0L35 1L36 1L36 0ZM41 0L41 1L42 1L42 0ZM17 1L17 3L18 3L18 1ZM29 1L29 2L30 2L30 1ZM31 1L31 2L32 2L32 3L33 3L33 4L35 4L35 5L36 5L36 3L33 3L33 1ZM27 2L27 3L28 3L28 2ZM38 2L38 4L39 4L39 2ZM42 2L42 3L44 3L44 2ZM52 2L52 4L51 4L51 3L46 3L46 6L45 6L45 7L44 7L44 5L43 5L43 8L45 8L45 7L46 7L46 8L47 8L47 9L45 9L45 10L43 10L43 9L41 9L41 10L38 10L38 11L36 11L36 12L35 12L35 10L37 10L37 9L40 9L40 8L39 8L39 7L40 7L40 6L39 6L39 7L38 7L38 6L37 6L37 7L36 7L36 6L35 6L35 10L33 10L33 9L31 9L31 10L30 10L30 6L29 6L29 9L28 9L28 10L30 10L30 11L26 11L26 12L25 12L25 10L26 10L26 9L25 9L25 8L27 8L27 7L28 7L28 5L29 5L29 4L28 4L28 5L27 5L27 7L26 7L26 5L25 5L25 8L23 8L23 9L22 9L22 11L21 11L21 12L20 12L20 14L19 14L19 12L18 12L18 11L17 11L17 12L16 12L16 9L14 9L14 10L15 10L15 11L13 11L13 10L12 10L12 11L13 11L13 13L12 13L12 14L13 14L13 13L14 13L14 12L16 12L16 13L15 13L15 14L16 14L16 18L15 18L15 17L14 17L14 19L12 19L12 20L14 20L14 21L12 21L12 22L14 22L14 21L15 21L15 22L16 22L16 23L18 23L18 24L19 24L19 25L16 25L16 24L14 24L14 25L15 25L15 26L18 26L18 27L14 27L14 26L13 26L13 25L12 25L12 24L13 24L13 23L11 23L11 21L10 21L10 22L8 22L8 23L10 23L10 24L9 24L9 25L10 25L10 26L9 26L9 27L8 27L8 25L5 25L5 26L7 26L7 27L6 27L6 28L4 28L4 27L3 27L3 28L4 28L4 29L6 29L6 30L9 30L9 29L8 29L8 28L11 28L11 29L10 29L10 30L11 30L11 29L12 29L12 31L11 31L11 32L10 32L10 31L9 31L9 32L10 32L10 33L11 33L11 32L12 32L12 31L13 31L13 35L14 35L14 33L16 33L16 35L15 35L15 36L14 36L14 37L12 37L12 39L13 39L13 40L12 40L12 41L11 41L11 42L13 42L13 43L14 43L14 44L16 44L16 43L17 43L17 40L18 40L18 39L19 39L19 40L20 40L20 42L19 42L19 43L18 43L18 44L19 44L19 43L21 43L21 45L20 45L20 46L19 46L19 47L22 47L22 48L21 48L21 49L24 49L24 50L22 50L22 51L20 51L20 49L19 49L19 48L18 48L18 46L17 46L17 45L15 45L15 46L17 46L17 47L16 47L16 48L13 48L13 47L14 47L14 46L12 46L12 44L11 44L11 43L10 43L10 40L9 40L9 42L8 42L8 41L6 41L6 40L5 40L5 41L3 41L3 42L2 42L2 43L1 43L1 44L2 44L2 46L1 46L1 47L2 47L2 50L3 50L3 52L4 52L4 51L6 51L6 52L5 52L5 53L6 53L6 54L8 54L8 57L12 57L12 56L11 56L11 55L13 55L13 56L15 56L15 54L16 54L16 56L17 56L17 55L18 55L18 54L19 54L19 57L18 57L18 59L17 59L17 60L18 60L18 59L19 59L19 60L20 60L20 59L21 59L21 58L20 58L20 57L21 57L21 55L22 55L22 54L21 54L21 55L20 55L20 52L21 52L21 53L23 53L23 52L22 52L22 51L24 51L24 55L26 55L26 54L28 54L28 55L27 55L27 56L28 56L28 55L29 55L29 54L31 54L31 55L30 55L30 56L33 56L33 54L32 54L32 53L28 53L28 52L29 52L29 50L30 50L30 52L31 52L31 51L32 51L32 49L33 49L33 50L34 50L34 51L33 51L33 52L34 52L34 56L35 56L35 59L36 59L36 60L37 60L37 61L38 61L38 60L39 60L39 59L38 59L38 60L37 60L37 58L38 58L38 57L39 57L39 56L41 56L41 57L40 57L40 58L42 58L42 59L44 59L44 58L45 58L45 55L46 55L46 54L47 54L47 53L48 53L48 52L47 52L47 51L50 51L50 52L49 52L49 54L48 54L48 56L47 56L47 57L48 57L48 59L47 59L47 60L49 60L49 61L48 61L48 62L47 62L47 63L48 63L48 64L51 64L51 62L52 62L52 61L50 61L50 60L53 60L53 57L51 57L51 56L52 56L52 55L50 55L50 53L51 53L51 54L53 54L53 55L54 55L54 56L55 56L55 57L54 57L54 59L55 59L55 58L56 58L56 55L57 55L57 56L58 56L58 55L57 55L57 54L59 54L59 56L60 56L60 55L62 55L62 56L61 56L61 59L62 59L62 58L63 58L63 56L64 56L64 54L63 54L63 55L62 55L62 54L61 54L61 53L60 53L60 51L58 51L58 52L56 52L56 53L57 53L57 54L55 54L55 55L54 55L54 54L53 54L53 53L55 53L55 52L54 52L54 50L55 50L55 49L54 49L54 48L55 48L55 47L56 47L56 48L57 48L57 49L58 49L58 50L61 50L61 49L58 49L58 48L60 48L60 47L59 47L59 46L61 46L61 45L58 45L58 44L57 44L57 42L59 42L59 41L60 41L60 39L61 39L61 38L62 38L62 40L61 40L61 41L62 41L62 40L63 40L63 37L64 37L64 36L63 36L63 37L62 37L62 35L59 35L59 36L60 36L60 37L61 37L61 38L60 38L60 39L58 39L58 40L57 40L57 38L56 38L56 39L54 39L54 40L56 40L56 41L54 41L54 42L56 42L56 44L55 44L55 43L54 43L54 44L53 44L53 45L54 45L54 47L53 47L53 46L51 46L51 43L53 43L53 42L50 42L50 43L49 43L49 42L48 42L48 41L47 41L47 40L49 40L49 41L50 41L50 40L51 40L51 39L52 39L52 41L53 41L53 39L52 39L52 38L55 38L55 37L56 37L56 36L57 36L57 35L56 35L56 33L52 33L52 30L53 30L53 31L54 31L54 32L56 32L56 31L54 31L54 30L56 30L56 27L54 27L54 28L52 28L52 27L53 27L53 26L55 26L55 25L56 25L56 26L57 26L57 25L56 25L56 24L55 24L55 23L51 23L51 24L49 24L49 23L50 23L50 22L52 22L52 21L51 21L51 20L52 20L52 18L50 18L50 16L51 16L51 15L52 15L52 17L54 17L54 18L53 18L53 19L54 19L54 18L56 18L56 17L54 17L54 16L56 16L56 15L57 15L57 14L58 14L58 13L56 13L56 11L53 11L53 10L52 10L52 9L51 9L51 7L52 7L52 6L51 6L51 7L50 7L50 4L51 4L51 5L52 5L52 4L53 4L53 2ZM10 3L10 4L9 4L9 5L10 5L10 4L12 4L12 3ZM23 4L23 5L24 5L24 4ZM48 4L48 5L47 5L47 6L46 6L46 7L47 7L47 6L48 6L48 7L49 7L49 6L48 6L48 5L49 5L49 4ZM11 5L11 7L12 7L12 6L13 6L13 5ZM31 5L31 8L34 8L34 5ZM53 5L53 7L54 7L54 8L53 8L53 9L54 9L54 8L55 8L55 7L54 7L54 5ZM9 6L9 7L10 7L10 6ZM23 6L23 7L24 7L24 6ZM32 6L32 7L33 7L33 6ZM3 8L3 9L4 9L4 8ZM36 8L36 9L37 9L37 8ZM48 8L48 9L47 9L47 10L48 10L48 11L51 11L51 10L48 10L48 9L50 9L50 8ZM63 8L63 9L65 9L65 8ZM0 9L0 10L2 10L2 9ZM24 9L24 10L23 10L23 11L24 11L24 10L25 10L25 9ZM60 9L60 10L61 10L61 9ZM31 10L31 11L30 11L30 12L34 12L34 11L32 11L32 10ZM41 10L41 11L42 11L42 10ZM3 11L3 13L1 13L1 15L2 15L2 14L3 14L3 18L2 18L2 19L3 19L3 20L4 20L4 19L6 19L6 20L8 20L8 19L6 19L6 18L8 18L8 17L9 17L9 15L10 15L10 14L11 14L11 13L10 13L10 12L9 12L9 13L8 13L8 12L7 12L7 11L6 11L6 12L5 12L5 11ZM38 11L38 12L36 12L36 13L35 13L35 14L33 14L33 15L32 15L32 13L29 13L29 12L28 12L28 14L31 14L31 15L32 15L32 17L31 17L31 16L30 16L30 15L28 15L28 16L30 16L30 17L28 17L28 18L30 18L30 19L27 19L27 16L26 16L26 17L24 17L24 16L25 16L25 15L27 15L27 13L26 13L26 14L25 14L25 15L23 15L23 14L21 14L21 15L19 15L19 16L20 16L20 17L24 17L24 18L21 18L21 19L22 19L22 20L19 20L19 21L18 21L18 22L19 22L19 23L20 23L20 24L21 24L21 27L22 27L22 26L26 26L26 27L24 27L24 28L27 28L27 29L26 29L26 31L22 31L22 28L19 28L19 27L20 27L20 26L19 26L19 27L18 27L18 28L19 28L19 30L18 30L18 29L17 29L17 28L16 28L16 29L17 29L17 30L18 30L18 31L17 31L17 35L16 35L16 36L15 36L15 37L14 37L14 38L13 38L13 39L14 39L14 40L13 40L13 41L16 41L16 40L17 40L17 38L19 38L19 39L20 39L20 38L21 38L21 39L22 39L22 40L23 40L23 39L24 39L24 40L25 40L25 41L23 41L23 42L22 42L22 43L23 43L23 46L22 46L22 45L21 45L21 46L22 46L22 47L23 47L23 48L25 48L25 49L26 49L26 50L24 50L24 51L25 51L25 52L26 52L26 53L27 53L27 52L26 52L26 51L28 51L28 50L27 50L27 49L26 49L26 48L28 48L28 47L30 47L30 50L31 50L31 47L32 47L32 48L35 48L35 49L34 49L34 50L35 50L35 49L36 49L36 48L37 48L37 49L41 49L41 48L40 48L40 47L42 47L42 46L43 46L43 45L44 45L44 42L45 42L45 41L46 41L46 40L47 40L47 38L50 38L50 36L51 36L51 37L54 37L54 36L52 36L52 35L51 35L51 34L48 34L48 35L49 35L49 36L46 36L46 39L45 39L45 38L44 38L44 37L45 37L45 35L44 35L44 34L42 34L42 33L40 33L40 34L39 34L39 32L38 32L38 34L37 34L37 31L36 31L36 33L35 33L35 30L36 30L36 28L37 28L37 30L38 30L38 31L39 31L39 30L38 30L38 28L39 28L39 29L40 29L40 28L41 28L41 27L42 27L42 29L43 29L43 30L40 30L40 32L42 32L42 31L43 31L43 33L44 33L44 29L43 29L43 28L44 28L44 27L42 27L42 26L41 26L41 25L42 25L42 24L43 24L43 22L42 22L42 23L41 23L41 21L44 21L44 22L45 22L45 21L48 21L48 22L47 22L47 23L48 23L48 22L49 22L49 19L50 19L50 20L51 20L51 19L50 19L50 18L49 18L49 19L47 19L47 18L48 18L48 17L49 17L49 16L50 16L50 15L49 15L49 16L47 16L47 18L46 18L46 15L47 15L47 14L52 14L52 15L53 15L53 16L54 16L54 15L53 15L53 14L54 14L54 13L55 13L55 15L56 15L56 13L55 13L55 12L54 12L54 13L53 13L53 12L51 12L51 13L49 13L49 12L47 12L47 13L46 13L46 15L45 15L45 16L44 16L44 15L43 15L43 14L44 14L44 13L45 13L45 12L46 12L46 11L44 11L44 13L43 13L43 12L42 12L42 13L41 13L41 12L40 12L40 11ZM6 12L6 13L4 13L4 17L5 17L5 18L6 18L6 17L8 17L8 16L6 16L6 17L5 17L5 15L9 15L9 14L10 14L10 13L9 13L9 14L8 14L8 13L7 13L7 12ZM22 12L22 13L23 13L23 12ZM38 12L38 14L39 14L39 13L40 13L40 12ZM6 13L6 14L7 14L7 13ZM36 13L36 14L35 14L35 17L36 17L36 15L37 15L37 18L38 18L38 19L36 19L36 21L35 21L35 23L34 23L34 22L33 22L33 23L32 23L32 22L31 22L31 20L30 20L30 21L29 21L29 20L28 20L28 21L29 21L29 22L28 22L28 23L27 23L27 24L26 24L26 25L27 25L27 26L28 26L28 25L29 25L29 27L28 27L28 29L27 29L27 30L28 30L28 31L27 31L27 32L21 32L21 31L20 31L20 30L19 30L19 31L18 31L18 33L19 33L19 34L20 34L20 35L18 35L18 36L19 36L19 37L21 37L21 38L22 38L22 37L23 37L23 38L24 38L24 39L25 39L25 40L26 40L26 39L27 39L27 40L28 40L28 41L25 41L25 42L28 42L28 41L29 41L29 42L33 42L33 40L34 40L34 42L35 42L35 43L33 43L33 44L32 44L32 43L31 43L31 45L29 45L29 46L31 46L31 45L33 45L33 46L32 46L32 47L33 47L33 46L34 46L34 47L37 47L37 48L39 48L39 47L40 47L40 46L39 46L39 45L41 45L41 46L42 46L42 44L40 44L40 43L39 43L39 42L40 42L40 41L43 41L43 42L44 42L44 41L43 41L43 40L42 40L42 39L44 39L44 38L43 38L43 35L42 35L42 34L40 34L40 35L41 35L41 37L40 37L40 39L39 39L39 38L38 38L38 36L37 36L37 38L38 38L38 39L39 39L39 40L37 40L37 39L36 39L36 36L34 36L34 35L33 35L33 36L32 36L32 35L30 35L30 34L29 34L29 33L28 33L28 35L26 35L26 34L25 34L25 33L27 33L27 32L30 32L30 31L29 31L29 30L35 30L35 28L34 28L34 27L39 27L39 25L40 25L40 24L41 24L41 23L40 23L40 24L39 24L39 23L38 23L38 22L37 22L37 21L40 21L40 20L39 20L39 19L40 19L40 18L41 18L41 20L42 20L42 17L44 17L44 16L43 16L43 15L42 15L42 14L43 14L43 13L42 13L42 14L40 14L40 15L37 15L37 13ZM52 13L52 14L53 14L53 13ZM17 14L17 16L18 16L18 14ZM13 15L13 16L10 16L10 18L9 18L9 19L10 19L10 20L11 20L11 19L10 19L10 18L11 18L11 17L12 17L12 18L13 18L13 16L15 16L15 15ZM22 15L22 16L23 16L23 15ZM41 15L41 17L42 17L42 15ZM33 16L33 17L32 17L32 18L31 18L31 17L30 17L30 18L31 18L31 19L32 19L32 18L34 18L34 19L33 19L33 20L32 20L32 21L33 21L33 20L35 20L35 18L34 18L34 16ZM39 16L39 18L40 18L40 16ZM17 17L17 19L20 19L20 18L18 18L18 17ZM24 18L24 20L23 20L23 22L22 22L22 23L21 23L21 24L22 24L22 25L23 25L23 24L25 24L25 22L26 22L26 20L27 20L27 19L26 19L26 18ZM43 18L43 19L44 19L44 21L45 21L45 19L44 19L44 18ZM14 19L14 20L16 20L16 21L17 21L17 20L16 20L16 19ZM46 19L46 20L47 20L47 19ZM24 20L24 21L25 21L25 20ZM0 22L0 24L1 24L1 23L2 23L2 24L3 24L3 22ZM29 22L29 23L28 23L28 24L29 24L29 25L31 25L31 24L30 24L30 22ZM6 23L6 24L7 24L7 23ZM22 23L22 24L23 24L23 23ZM35 23L35 25L33 25L33 24L32 24L32 25L33 25L33 27L32 27L32 29L33 29L33 27L34 27L34 26L35 26L35 25L36 25L36 26L37 26L37 25L38 25L38 24L37 24L37 25L36 25L36 23ZM44 23L44 25L43 25L43 26L44 26L44 25L45 25L45 24L46 24L46 27L45 27L45 29L48 29L48 30L45 30L45 31L47 31L47 32L48 32L48 33L49 33L49 32L50 32L50 30L52 30L52 29L50 29L50 30L49 30L49 29L48 29L48 27L50 27L50 28L51 28L51 27L50 27L50 25L49 25L49 24L46 24L46 23ZM51 24L51 25L52 25L52 26L53 26L53 24ZM54 24L54 25L55 25L55 24ZM47 25L47 26L48 26L48 25ZM10 26L10 27L11 27L11 28L12 28L12 29L13 29L13 30L14 30L14 32L16 32L16 31L15 31L15 28L14 28L14 29L13 29L13 28L12 28L12 27L13 27L13 26L12 26L12 27L11 27L11 26ZM40 26L40 27L41 27L41 26ZM1 27L1 29L2 29L2 27ZM7 27L7 28L6 28L6 29L7 29L7 28L8 28L8 27ZM29 27L29 28L30 28L30 29L31 29L31 27ZM46 27L46 28L47 28L47 27ZM23 29L23 30L24 30L24 29ZM28 29L28 30L29 30L29 29ZM53 29L53 30L54 30L54 29ZM60 29L60 30L61 30L61 29ZM48 30L48 32L49 32L49 30ZM5 31L5 34L8 34L8 31ZM19 31L19 32L20 32L20 31ZM31 31L31 34L34 34L34 31ZM57 31L57 34L60 34L60 31ZM62 31L62 32L63 32L63 31ZM6 32L6 33L7 33L7 32ZM32 32L32 33L33 33L33 32ZM45 32L45 33L46 33L46 32ZM58 32L58 33L59 33L59 32ZM0 33L0 35L1 35L1 33ZM22 33L22 35L23 35L23 37L24 37L24 38L27 38L27 39L30 39L30 40L29 40L29 41L30 41L30 40L31 40L31 41L32 41L32 38L33 38L33 37L34 37L34 36L33 36L33 37L32 37L32 36L31 36L31 37L32 37L32 38L30 38L30 36L27 36L27 37L24 37L24 35L25 35L25 34L24 34L24 35L23 35L23 33ZM61 33L61 34L62 34L62 33ZM35 34L35 35L36 35L36 34ZM54 34L54 35L55 35L55 36L56 36L56 35L55 35L55 34ZM20 35L20 36L21 36L21 37L22 37L22 36L21 36L21 35ZM4 36L4 37L5 37L5 36ZM15 37L15 39L16 39L16 38L17 38L17 37ZM35 39L35 40L36 40L36 39ZM40 39L40 40L41 40L41 39ZM49 39L49 40L50 40L50 39ZM38 41L38 42L39 42L39 41ZM4 42L4 43L3 43L3 46L5 46L5 44L6 44L6 45L7 45L7 46L6 46L6 47L7 47L7 48L6 48L6 49L4 49L4 48L5 48L5 47L3 47L3 50L6 50L6 51L7 51L7 50L6 50L6 49L8 49L8 50L9 50L9 49L10 49L10 51L8 51L8 54L9 54L9 56L10 56L10 55L11 55L11 54L13 54L13 53L11 53L11 51L12 51L12 52L13 52L13 50L14 50L14 53L15 53L15 51L16 51L16 50L17 50L17 51L18 51L18 52L16 52L16 54L18 54L18 53L19 53L19 52L20 52L20 51L18 51L18 50L19 50L19 49L18 49L18 48L16 48L16 49L15 49L15 50L14 50L14 49L11 49L11 48L12 48L12 47L11 47L11 48L9 48L9 47L10 47L10 45L9 45L9 43L8 43L8 42ZM14 42L14 43L15 43L15 42ZM23 42L23 43L24 43L24 42ZM36 42L36 44L37 44L37 42ZM46 42L46 43L45 43L45 44L46 44L46 45L45 45L45 46L44 46L44 48L43 48L43 49L42 49L42 50L41 50L41 51L43 51L43 52L41 52L41 53L43 53L43 52L44 52L44 54L43 54L43 55L42 55L42 54L41 54L41 56L43 56L43 58L44 58L44 56L43 56L43 55L44 55L44 54L45 54L45 53L47 53L47 52L46 52L46 51L47 51L47 49L48 49L48 50L50 50L50 49L51 49L51 47L50 47L50 48L47 48L47 46L48 46L48 47L49 47L49 46L50 46L50 44L49 44L49 43L48 43L48 44L47 44L47 42ZM63 42L63 44L64 44L64 45L65 45L65 44L64 44L64 43L65 43L65 42ZM4 43L4 44L5 44L5 43ZM6 43L6 44L7 44L7 45L8 45L8 43ZM25 43L25 44L26 44L26 43ZM27 43L27 44L29 44L29 43ZM38 44L38 45L36 45L36 46L38 46L38 47L39 47L39 46L38 46L38 45L39 45L39 44ZM54 44L54 45L55 45L55 46L56 46L56 47L57 47L57 48L58 48L58 46L57 46L57 44L56 44L56 45L55 45L55 44ZM34 45L34 46L35 46L35 45ZM46 45L46 46L45 46L45 48L46 48L46 49L44 49L44 52L45 52L45 50L46 50L46 49L47 49L47 48L46 48L46 46L47 46L47 45ZM7 46L7 47L9 47L9 46ZM23 46L23 47L24 47L24 46ZM26 46L26 47L28 47L28 46ZM52 47L52 51L53 51L53 47ZM8 48L8 49L9 49L9 48ZM37 50L37 51L38 51L38 55L39 55L39 54L40 54L40 53L39 53L39 52L40 52L40 51L38 51L38 50ZM56 50L56 51L57 51L57 50ZM6 52L6 53L7 53L7 52ZM9 52L9 53L10 53L10 54L11 54L11 53L10 53L10 52ZM36 52L36 55L37 55L37 52ZM51 52L51 53L52 53L52 52ZM59 53L59 54L60 54L60 53ZM37 56L37 57L36 57L36 58L37 58L37 57L38 57L38 56ZM48 56L48 57L49 57L49 58L50 58L50 59L52 59L52 58L50 58L50 56ZM27 57L27 59L28 59L28 58L30 58L30 57ZM31 57L31 60L34 60L34 57ZM57 57L57 60L60 60L60 57ZM19 58L19 59L20 59L20 58ZM32 58L32 59L33 59L33 58ZM58 58L58 59L59 59L59 58ZM13 60L13 61L14 61L14 60ZM22 60L22 61L21 61L21 63L22 63L22 61L23 61L23 60ZM40 60L40 61L42 61L42 60ZM32 61L32 64L34 64L34 63L33 63L33 62L34 62L34 61ZM49 61L49 62L48 62L48 63L50 63L50 61ZM58 62L58 63L59 63L59 65L60 65L60 63L62 63L62 62L60 62L60 63L59 63L59 62ZM11 63L11 64L12 64L12 63ZM54 63L54 64L55 64L55 63ZM18 64L18 65L19 65L19 64ZM0 0L0 7L7 7L7 0ZM1 1L1 6L6 6L6 1ZM2 2L2 5L5 5L5 2ZM58 0L58 7L65 7L65 0ZM59 1L59 6L64 6L64 1ZM60 2L60 5L63 5L63 2ZM0 58L0 65L7 65L7 58ZM1 59L1 64L6 64L6 59ZM2 60L2 63L5 63L5 60Z" fill="#000000"/></g></g></svg>
